#N canvas 1122 189 778 605 10;
#X floatatom 110 138 5 0 0 2 échelle_horiz. - -;
#X msg 119 279 335.34;
#X obj 114 349 pack 0 0 0 0;
#X obj 119 252 prepend set;
#X obj 114 379 outlet;
#X floatatom 110 158 5 0 0 3 échelle_vert. - -;
#X msg 199 279 -72;
#X obj 199 252 prepend set;
#X floatatom 208 138 5 0 0 2 décalage_horiz. - -;
#X msg 279 279 248;
#X obj 279 252 prepend set;
#X floatatom 208 158 5 0 0 3 décalage_vert. - -;
#X msg 359 279 328;
#X obj 359 252 prepend set;
#X obj 35 152 t b b b b;
#X obj 122 55 loadbang;
#X connect 0 0 3 0;
#X connect 0 0 14 0;
#X connect 1 0 2 0;
#X connect 2 0 4 0;
#X connect 3 0 1 0;
#X connect 5 0 7 0;
#X connect 5 0 14 0;
#X connect 6 0 2 1;
#X connect 7 0 6 0;
#X connect 8 0 10 0;
#X connect 8 0 14 0;
#X connect 9 0 2 2;
#X connect 10 0 9 0;
#X connect 11 0 13 0;
#X connect 11 0 14 0;
#X connect 12 0 2 3;
#X connect 13 0 12 0;
#X connect 14 0 1 0;
#X connect 14 1 6 0;
#X connect 14 2 9 0;
#X connect 14 3 12 0;
#X connect 15 0 14 0;
#X coords 0 -1 1 1 200 90 1 100 100;
