#N canvas 212 40 778 605 10;
#X floatatom 110 138 5 0 0 2 échelle_horiz. - -;
#X obj 84 427 pack 0 0 0 0;
#X obj 84 457 outlet;
#X floatatom 110 158 5 0 0 3 échelle_vert. - -;
#X floatatom 208 138 5 0 0 2 décalage_horiz. - -;
#X floatatom 208 158 5 0 0 3 décalage_vert. - -;
#X obj 121 7 loadbang;
#X msg 211 60 105;
#X msg 260 60 186;
#X msg 116 60 319;
#X obj 146 31 t b b b b;
#X msg 53 60 606;
#X obj 108 368 t b i;
#X obj 148 368 t b i;
#X obj 188 368 t b i;
#X text 314 51 si tu changes les valeurs \; reporte-les dans ces boites
;
#X connect 0 0 1 0;
#X connect 1 0 2 0;
#X connect 3 0 12 0;
#X connect 4 0 13 0;
#X connect 5 0 14 0;
#X connect 6 0 10 0;
#X connect 7 0 4 0;
#X connect 8 0 5 0;
#X connect 9 0 3 0;
#X connect 10 0 11 0;
#X connect 10 1 9 0;
#X connect 10 2 7 0;
#X connect 10 3 8 0;
#X connect 11 0 0 0;
#X connect 12 0 1 0;
#X connect 12 1 1 1;
#X connect 13 0 1 0;
#X connect 13 1 1 2;
#X connect 14 0 1 0;
#X connect 14 1 1 3;
#X coords 0 -1 1 1 200 90 1 100 100;
