#N canvas 470 87 778 605 10;
#X floatatom 110 138 5 0 0 2 échelle_horiz. - -;
#X msg 119 279 496;
#X obj 114 349 pack 0 0 0 0;
#X obj 114 379 outlet;
#X floatatom 110 158 5 0 0 3 échelle_vert. - -;
#X floatatom 208 138 5 0 0 2 décalage_horiz. - -;
#X msg 279 279 95;
#X floatatom 208 158 5 0 0 3 décalage_vert. - -;
#X msg 359 279 328;
#X obj 57 226 t b b b b;
#X obj 122 55 loadbang;
#X msg 199 279 -1;
#X connect 0 0 9 0;
#X connect 1 0 2 0;
#X connect 2 0 3 0;
#X connect 4 0 9 0;
#X connect 5 0 9 0;
#X connect 6 0 2 2;
#X connect 7 0 9 0;
#X connect 8 0 2 3;
#X connect 9 0 1 0;
#X connect 9 1 11 0;
#X connect 9 2 6 0;
#X connect 9 3 8 0;
#X connect 10 0 9 0;
#X connect 11 0 2 1;
#X coords 0 -1 1 1 200 90 1 100 100;
