#N canvas 0 0 450 398 10;
#X obj 79 -195 key;
#X msg 79 -145 1;
#X msg 110 -145 1;
#X msg 175 -146 0;
#X msg 206 -146 0;
#X obj 129 -62 +;
#X obj 126 -31 f;
#X obj 175 -197 keyup;
#X obj 79 -115 metro 20;
#X obj 173 -113 metro 20;
#X msg 79 -90 -0.1;
#X msg 173 -91 0.1;
#X floatatom 126 -6 5 0 0 0 - - -;
#X floatatom 125 45 5 0 0 0 - - -;
#X floatatom 182 46 5 0 0 0 - - -;
#X obj 237 -88 loadbang;
#X msg 232 -57 0;
#X obj 125 21 moses -4;
#X obj 183 68 moses 4;
#X msg 232 93 4;
#X msg 125 69 -4;
#X obj 79 -170 sel \$1 \$2;
#X obj 165 125 outlet;
#X obj 175 -171 sel \$1 \$2;
#X connect 0 0 21 0;
#X connect 1 0 8 0;
#X connect 2 0 9 0;
#X connect 3 0 8 0;
#X connect 4 0 9 0;
#X connect 5 0 6 0;
#X connect 6 0 5 1;
#X connect 6 0 12 0;
#X connect 7 0 23 0;
#X connect 8 0 10 0;
#X connect 9 0 11 0;
#X connect 10 0 5 0;
#X connect 11 0 5 0;
#X connect 12 0 17 0;
#X connect 13 0 20 0;
#X connect 14 0 18 0;
#X connect 15 0 16 0;
#X connect 16 0 6 0;
#X connect 17 0 13 0;
#X connect 17 1 14 0;
#X connect 18 0 22 0;
#X connect 18 1 19 0;
#X connect 19 0 5 1;
#X connect 19 0 22 0;
#X connect 20 0 5 1;
#X connect 20 0 22 0;
#X connect 21 0 1 0;
#X connect 21 1 2 0;
#X connect 23 0 3 0;
#X connect 23 1 4 0;
