#N canvas 372 382 485 373 10;
#X obj 32 21 gemhead;
#X obj 103 18 inlet;
#N canvas 841 273 543 440 collision_balle_pad 1;
#X obj 40 196 r xballe;
#X obj 294 25 loadbang;
#X obj 294 73 expr abs($f1) - 0.3;
#X obj 363 27 bng 15 250 50 0 empty empty empty 17 7 0 10 -262144 -1
-1;
#X text 269 7 calcul coordonnee contact pad/balle;
#X floatatom 294 150 5 0 0 0 - - -;
#X obj 294 123 expr $f1 * (\$1/abs(\$1));
#X obj 57 316 inlet;
#X text 351 142 calcul signe;
#X text 63 254 ici banguer quand xballe depasse;
#X obj 6 262 switch;
#X floatatom 6 234 5 0 0 0 - - -;
#X obj 70 234 >;
#X obj 40 235 <;
#X obj 6 309 sel 1;
#N canvas 572 49 678 585 rebond 0;
#X obj 173 231 r padsize;
#X text 245 232 calculs tjs ok même si taille du pad change;
#X obj 158 258 /;
#N canvas 785 257 450 280 angle 0;
#X obj 173 62 inlet;
#X obj 215 62 inlet;
#X obj 52 129 cnv 15 200 120 empty empty empty 20 12 0 14 -261682 -66577
0;
#X obj 173 225 s vitesseY;
#X obj 173 181 spigot;
#X text 57 129 changement \; de l'angle \; en fonction de \; la zone
ou la \; balle tape dans \; le pad \;;
#X text 116 204 ------>;
#X text 36 214 plus cette valeur \; est petite \, + la \; balle aura
de l'angle \; defaut : 100;
#X obj 269 158 r angle;
#X obj 173 202 / 20;
#X connect 0 0 4 0;
#X connect 1 0 4 1;
#X connect 4 0 9 0;
#X connect 8 0 9 1;
#X connect 9 0 3 0;
#X restore 113 465 pd angle;
#X obj 158 209 -;
#X obj 173 114 r yballe;
#X obj 158 140 f;
#X obj 158 70 t b;
#X obj 113 403 pipe 5;
#X obj 158 301 expr if($f1 > -1.1 && $f1 < 1.1 \, 1 \, 0) \;;
#X obj 158 40 inlet;
#X obj 173 170 inlet;
#X obj 258 93 unbang 1000;
#X obj 284 504 s vitesseX;
#X obj 284 445 f;
#X obj 284 473 * -1;
#X obj 299 400 r vitesseX;
#X obj 284 330 sel 1;
#X obj 210 475 outlet;
#X obj 284 377 unbang 1000;
#X text 340 86 si la balle est tjs derriere le pad \, ca va faire un
bug \, attendre un peu avant de retester;
#X text 272 63 viré mais remettre si bugs...;
#X connect 0 0 2 1;
#X connect 2 0 9 0;
#X connect 2 0 8 0;
#X connect 4 0 2 0;
#X connect 5 0 6 1;
#X connect 6 0 4 0;
#X connect 7 0 6 0;
#X connect 8 0 3 0;
#X connect 9 0 3 1;
#X connect 9 0 17 0;
#X connect 10 0 7 0;
#X connect 11 0 4 1;
#X connect 14 0 15 0;
#X connect 15 0 13 0;
#X connect 16 0 14 1;
#X connect 17 0 19 0;
#X connect 19 0 14 0;
#X connect 19 0 18 0;
#X restore 6 356 pd rebond;
#X obj 6 287 change;
#X obj 294 49 \$2;
#X obj 6 380 s collision_balle_pad_\$1;
#X obj 6 92 expr if($f1<0 \, 1 \, 2);
#X connect 0 0 13 0;
#X connect 0 0 12 0;
#X connect 1 0 17 0;
#X connect 2 0 6 0;
#X connect 3 0 17 0;
#X connect 5 0 12 1;
#X connect 5 0 13 1;
#X connect 6 0 5 0;
#X connect 7 0 15 1;
#X connect 10 0 16 0;
#X connect 11 0 10 0;
#X connect 12 0 10 2;
#X connect 13 0 10 1;
#X connect 14 0 15 0;
#X connect 15 0 18 0;
#X connect 16 0 14 0;
#X connect 17 0 2 0;
#X connect 17 0 19 0;
#X connect 19 0 11 0;
#X restore 135 125 pd collision_balle_pad;
#X obj 125 233 r padsize;
#X obj 32 264 rectangle 0.15 1;
#N canvas 1057 248 584 532 pad_key_control 0;
#X obj 81 -155 key;
#X msg 81 -105 1;
#X msg 112 -105 1;
#X msg 177 -106 0;
#X msg 208 -106 0;
#X obj 131 -22 +;
#X obj 128 9 f;
#X obj 177 -157 keyup;
#X obj 81 -75 metro 20;
#X obj 175 -73 metro 20;
#X msg 81 -50 -0.1;
#X msg 175 -51 0.1;
#X floatatom 128 34 5 0 0 0 - - -;
#X floatatom 127 85 5 0 0 0 - - -;
#X floatatom 184 86 5 0 0 0 - - -;
#X obj 239 -48 loadbang;
#X msg 234 -17 0;
#X obj 127 61 moses -4;
#X obj 185 108 moses 4;
#X msg 234 133 4;
#X msg 127 109 -4;
#X obj 167 165 outlet;
#X obj 81 -130 sel \$3 \$4;
#X obj 177 -131 sel \$3 \$4;
#X connect 0 0 22 0;
#X connect 1 0 8 0;
#X connect 2 0 9 0;
#X connect 3 0 8 0;
#X connect 4 0 9 0;
#X connect 5 0 6 0;
#X connect 6 0 5 1;
#X connect 6 0 12 0;
#X connect 7 0 23 0;
#X connect 8 0 10 0;
#X connect 9 0 11 0;
#X connect 10 0 5 0;
#X connect 11 0 5 0;
#X connect 12 0 17 0;
#X connect 13 0 20 0;
#X connect 14 0 18 0;
#X connect 15 0 16 0;
#X connect 16 0 6 0;
#X connect 17 0 13 0;
#X connect 17 1 14 0;
#X connect 18 0 21 0;
#X connect 18 1 19 0;
#X connect 19 0 5 1;
#X connect 19 0 21 0;
#X connect 20 0 5 1;
#X connect 20 0 21 0;
#X connect 22 0 1 0;
#X connect 22 1 2 0;
#X connect 23 0 3 0;
#X connect 23 1 4 0;
#X restore 183 28 pd pad_key_control;
#X floatatom 115 68 5 0 0 0 - - -;
#X obj 32 186 translateXYZ \$2 0 0;
#X text 30 299 arguments \; number xpos ysize key_up key_down;
#X connect 0 0 7 0;
#X connect 1 0 6 0;
#X connect 3 0 4 2;
#X connect 5 0 6 0;
#X connect 6 0 2 0;
#X connect 6 0 7 2;
#X connect 7 0 4 0;
