#N canvas 1165 143 570 368 10;
#X obj 72 20 gemhead;
#X obj 73 309 text3d;
#X obj 97 86 loadbang;
#X msg 91 221 text 0;
#X obj 248 239 counter;
#X obj 304 170 bng 15 250 50 0 empty reset_score reset 17 7 0 10 -262144
-1 -1;
#X obj 249 268 prepend text;
#X msg 264 186 inc;
#X msg 280 209 dec;
#X obj 304 128 bng 15 250 50 0 empty empty inc 17 7 0 10 -262144 -1
-1;
#X obj 304 149 bng 15 250 50 0 empty empty dec 17 7 0 10 -262144 -1
-1;
#X obj 304 326 outlet;
#X msg 81 264 font minecrafter_3.ttf;
#X msg 143 221 9;
#X obj 72 42 translateXYZ \$2 3.5 0;
#X obj 250 71 r out_\$1;
#X connect 0 0 14 0;
#X connect 2 0 12 0;
#X connect 2 0 3 0;
#X connect 2 0 13 0;
#X connect 3 0 1 0;
#X connect 4 0 6 0;
#X connect 4 0 11 0;
#X connect 5 0 4 3;
#X connect 6 0 1 0;
#X connect 7 0 4 0;
#X connect 8 0 4 0;
#X connect 9 0 7 0;
#X connect 10 0 8 0;
#X connect 12 0 1 0;
#X connect 13 0 1 1;
#X connect 14 0 1 0;
#X connect 15 0 4 0;
#X coords 0 -1 1 1 85 90 1 300 100;
