#N canvas 149 53 603 631 10;
#N canvas 0 0 597 521 gameboy 0;
#X obj 136 165 mtof;
#X obj 137 291 *~;
#X obj 224 255 vline~;
#X obj 275 130 / 127;
#X obj 136 84 inlet;
#X obj 224 53 inlet;
#X obj 135 326 dac~;
#X obj 224 96 select 0;
#X obj 274 152 t f f;
#X obj 274 180 pack 0 0;
#X obj 225 285 *~;
#X obj 224 312 *~;
#X obj 325 156 * 0.8;
#X obj 136 223 phasor~;
#X obj 137 257 lop~ 18000;
#X msg 224 118 0 80;
#X msg 274 202 \$1 30 \, \$2 100 30;
#X connect 0 0 13 0;
#X connect 1 0 6 0;
#X connect 1 0 6 1;
#X connect 2 0 10 0;
#X connect 2 0 10 1;
#X connect 3 0 8 0;
#X connect 4 0 0 0;
#X connect 5 0 7 0;
#X connect 7 0 15 0;
#X connect 7 1 3 0;
#X connect 8 0 9 0;
#X connect 8 1 12 0;
#X connect 9 0 16 0;
#X connect 10 0 11 0;
#X connect 10 0 11 1;
#X connect 11 0 1 1;
#X connect 12 0 9 1;
#X connect 13 0 14 0;
#X connect 14 0 1 0;
#X connect 15 0 2 0;
#X connect 16 0 2 0;
#X restore 174 231 pd gameboy;
#X obj 174 167 makenote 100 100;
#X msg 99 92 50;
#X msg 200 92 55;
#X msg 146 92 52;
#X msg 242 92 40;
#X obj 99 62 inlet;
#X obj 146 62 inlet;
#X obj 200 62 inlet;
#X obj 242 62 inlet;
#X connect 1 0 0 0;
#X connect 1 1 0 1;
#X connect 2 0 1 0;
#X connect 3 0 1 0;
#X connect 4 0 1 0;
#X connect 5 0 1 0;
#X connect 6 0 2 0;
#X connect 7 0 4 0;
#X connect 8 0 3 0;
#X connect 9 0 5 0;
