#N canvas 174 30 1089 598 10;
#X obj -84 4 video_out;
#X obj -75 214 pad -6;
#N canvas 456 20 759 633 balle 0;
#X obj 117 36 gemhead;
#X obj 120 545 translateXYZ;
#X obj 144 385 r balleX;
#X obj 204 385 r balleY;
#X obj 120 572 square 0.1;
#X connect 0 0 1 0;
#X connect 1 0 4 0;
#X connect 2 0 1 1;
#X connect 3 0 1 2;
#X restore 16 105 pd balle;
#X obj -84 64 bng 15 250 50 0 reset empty reset 17 7 0 10 -262144 -1
-1;
#X obj -84 43 tgl 15 0 go empty go 17 7 0 10 -262144 -1 -1 0 1;
#X obj 410 252 s vitesseY;
#X msg 581 71 0;
#X obj 667 291 f;
#X obj 694 291 +;
#X obj 709 218 r vitesseY;
#X obj 581 45 r reset;
#X obj 669 35 r go;
#X obj 552 505 s balleX;
#X obj 680 385 s balleY;
#X obj 720 31 tgl 15 0 empty empty empty 17 7 0 10 -262144 -1 -1 0
1;
#X obj -17 215 pad 6;
#X obj 282 251 s vitesseX;
#X obj 834 102 uzi;
#X obj 549 292 f;
#X obj 576 292 +;
#X obj 591 219 r vitesseX;
#X msg 264 223 0.01;
#X msg 314 222 -0.01;
#X obj 279 120 r balleX;
#X obj 264 197 sel 1;
#X floatatom 609 316 5 0 0 0 - - -;
#X obj 314 197 sel 1;
#X obj 668 78 metro 5;
#X obj 264 175 < -7.11;
#X obj 314 175 > 7.11;
#X msg 393 224 0.01;
#X msg 438 224 -0.01;
#X obj 393 194 sel 1;
#X obj 438 194 sel 1;
#X obj 404 119 r balleY;
#X obj 393 169 < -4;
#X obj 438 169 > 4;
#X obj -17 188 r ypad2;
#X obj -75 187 r ypad1;
#X obj 347 135 loadbang;
#X floatatom -83 299 5 0 0 0 - - -;
#X obj -83 320 s ypad1;
#X floatatom -14 299 5 0 0 0 - - -;
#X obj -14 320 s ypad2;
#X connect 6 0 7 0;
#X connect 6 0 18 0;
#X connect 7 0 8 0;
#X connect 7 0 13 0;
#X connect 8 0 7 1;
#X connect 9 0 8 1;
#X connect 10 0 6 0;
#X connect 11 0 27 0;
#X connect 14 0 27 0;
#X connect 18 0 19 0;
#X connect 18 0 12 0;
#X connect 19 0 18 1;
#X connect 20 0 19 1;
#X connect 20 0 25 0;
#X connect 21 0 16 0;
#X connect 22 0 16 0;
#X connect 23 0 28 0;
#X connect 23 0 29 0;
#X connect 24 0 21 0;
#X connect 26 0 22 0;
#X connect 27 0 7 0;
#X connect 27 0 18 0;
#X connect 28 0 24 0;
#X connect 29 0 26 0;
#X connect 30 0 5 0;
#X connect 31 0 5 0;
#X connect 32 0 30 0;
#X connect 33 0 31 0;
#X connect 34 0 35 0;
#X connect 34 0 36 0;
#X connect 35 0 32 0;
#X connect 36 0 33 0;
#X connect 37 0 15 0;
#X connect 38 0 1 0;
#X connect 39 0 21 0;
#X connect 39 0 30 0;
#X connect 40 0 41 0;
#X connect 42 0 43 0;
