#N canvas 171 199 493 362 10;
#X obj 48 182 gemwin;
#X msg 423 129 destroy;
#X msg 2 129 create \, 1;
#X msg 78 129 border 0;
#X obj 62 48 bng 15 250 50 0 empty empty create 17 7 0 10 -262144 -1
-1;
#X obj 136 46 bng 15 250 50 0 empty empty destroy 17 7 0 10 -262144
-1 -1;
#X msg 248 129 color 0 0 0;
#X obj 68 4 loadbang;
#X obj 89 89 t b b b b b;
#X msg 25 85 frame 60;
#X text 159 168 ^ \; Changer cette valeur \; pour la régler \; dimen
<largeur-ecran> et <hauteur_fenetre>;
#X msg 144 129 dimen 1920 1080;
#X text 272 29 placement de la fenetre de sortie;
#X msg 330 129 offset 1360 0;
#X connect 1 0 0 0;
#X connect 2 0 0 0;
#X connect 3 0 0 0;
#X connect 4 0 8 0;
#X connect 5 0 1 0;
#X connect 6 0 0 0;
#X connect 7 0 4 0;
#X connect 7 0 9 0;
#X connect 8 0 2 0;
#X connect 8 1 3 0;
#X connect 8 2 11 0;
#X connect 8 3 6 0;
#X connect 8 4 13 0;
#X connect 9 0 0 0;
#X connect 11 0 0 0;
#X connect 13 0 0 0;
#X coords 0 -1 1 1 150 35 1 50 30;
